<mxfile host="app.diagrams.net" modified="2023-06-12T11:52:01.027Z" agent="Mozilla/5.0 (Windows NT 10.0; Win64; x64; rv:109.0) Gecko/20100101 Firefox/114.0" version="21.3.8" etag="tbpyzfIUq3izfcgwWiOO" type="device">
  <diagram id="IMfcDTtslhJo9Jacq_pT" name="Page-1">
    <mxGraphModel dx="922" dy="402" grid="1" gridSize="10" guides="1" tooltips="1" connect="1" arrows="1" fold="1" page="1" pageScale="1" pageWidth="1169" pageHeight="1654" math="0" shadow="0">
      <root>
        <mxCell id="0" />
        <mxCell id="1" parent="0" />
        <mxCell id="HRQ94fjygY4lQHOxMg0O-18" value="" style="rounded=0;orthogonalLoop=1;jettySize=auto;html=1;endArrow=none;endFill=0;exitX=0.5;exitY=0.5;exitDx=0;exitDy=0;exitPerimeter=0;" parent="1" source="HRQ94fjygY4lQHOxMg0O-1" target="HRQ94fjygY4lQHOxMg0O-17" edge="1">
          <mxGeometry relative="1" as="geometry" />
        </mxCell>
        <mxCell id="HRQ94fjygY4lQHOxMg0O-1" value="Locataire" style="shape=umlActor;verticalLabelPosition=bottom;verticalAlign=top;html=1;" parent="1" vertex="1">
          <mxGeometry x="260" y="150" width="30" height="60" as="geometry" />
        </mxCell>
        <mxCell id="HRQ94fjygY4lQHOxMg0O-20" value="" style="rounded=0;orthogonalLoop=1;jettySize=auto;html=1;endArrow=none;endFill=0;" parent="1" source="HRQ94fjygY4lQHOxMg0O-5" target="HRQ94fjygY4lQHOxMg0O-19" edge="1">
          <mxGeometry relative="1" as="geometry" />
        </mxCell>
        <mxCell id="HRQ94fjygY4lQHOxMg0O-5" value="Guide" style="shape=umlActor;html=1;verticalLabelPosition=bottom;verticalAlign=top;align=center;" parent="1" vertex="1">
          <mxGeometry x="260" y="380" width="30" height="60" as="geometry" />
        </mxCell>
        <mxCell id="HRQ94fjygY4lQHOxMg0O-9" value="UC Heb." style="shape=umlFrame;whiteSpace=wrap;html=1;" parent="1" vertex="1">
          <mxGeometry x="450" y="90" width="550" height="360" as="geometry" />
        </mxCell>
        <mxCell id="HRQ94fjygY4lQHOxMg0O-17" value="Reserver un hébergement" style="ellipse;whiteSpace=wrap;html=1;verticalAlign=top;" parent="1" vertex="1">
          <mxGeometry x="510" y="140" width="120" height="60" as="geometry" />
        </mxCell>
        <mxCell id="HRQ94fjygY4lQHOxMg0O-19" value="&lt;div&gt;&lt;br&gt;&lt;/div&gt;&lt;div&gt;Proposer une visite de la ville&lt;br&gt;&lt;/div&gt;" style="ellipse;whiteSpace=wrap;html=1;verticalAlign=top;" parent="1" vertex="1">
          <mxGeometry x="510" y="360" width="120" height="60" as="geometry" />
        </mxCell>
        <mxCell id="4" value="Proposer un hébérgement" style="ellipse;whiteSpace=wrap;html=1;verticalAlign=top;" parent="1" vertex="1">
          <mxGeometry x="510" y="260" width="120" height="60" as="geometry" />
        </mxCell>
        <mxCell id="8" value="" style="html=1;endArrow=none;elbow=vertical;entryX=0;entryY=0.5;entryDx=0;entryDy=0;exitX=0.5;exitY=0.5;exitDx=0;exitDy=0;exitPerimeter=0;rounded=0;" parent="1" source="9" target="4" edge="1">
          <mxGeometry width="160" relative="1" as="geometry">
            <mxPoint x="480" y="220" as="sourcePoint" />
            <mxPoint x="640" y="220" as="targetPoint" />
          </mxGeometry>
        </mxCell>
        <mxCell id="9" value="Propriétaire" style="shape=umlActor;verticalLabelPosition=bottom;verticalAlign=top;html=1;" parent="1" vertex="1">
          <mxGeometry x="260" y="280" width="30" height="60" as="geometry" />
        </mxCell>
        <mxCell id="10" value="Demander une visite touristique" style="ellipse;whiteSpace=wrap;html=1;verticalAlign=top;" parent="1" vertex="1">
          <mxGeometry x="800" y="140" width="160" height="50" as="geometry" />
        </mxCell>
        <mxCell id="13" value="&amp;lt;&amp;lt;extend&amp;gt;&amp;gt;" style="html=1;verticalAlign=bottom;labelBackgroundColor=none;endArrow=none;endFill=0;dashed=1;exitX=1;exitY=0.5;exitDx=0;exitDy=0;startArrow=open;startFill=0;" parent="1" source="HRQ94fjygY4lQHOxMg0O-17" edge="1">
          <mxGeometry width="160" relative="1" as="geometry">
            <mxPoint x="640" y="169.5" as="sourcePoint" />
            <mxPoint x="800" y="169.5" as="targetPoint" />
          </mxGeometry>
        </mxCell>
      </root>
    </mxGraphModel>
  </diagram>
</mxfile>
